<svg width="110" height="32" viewBox="0 0 110 32" fill="none" xmlns="http://www.w3.org/2000/svg">
<rect width="110" height="32" rx="4" fill="#E6E7EE"/>
<path d="M32.385 11V7.04H33.6473C33.6803 7.04 33.7453 7.04092 33.8425 7.04275C33.9415 7.04458 34.0368 7.051 34.1285 7.062C34.442 7.10233 34.7069 7.21417 34.9233 7.3975C35.1414 7.579 35.3064 7.81092 35.4183 8.09325C35.5301 8.37558 35.586 8.6845 35.586 9.02C35.586 9.3555 35.5301 9.66442 35.4183 9.94675C35.3064 10.2291 35.1414 10.4619 34.9233 10.6452C34.7069 10.8267 34.442 10.9377 34.1285 10.978C34.0387 10.989 33.9443 10.9954 33.8453 10.9972C33.7463 10.9991 33.6803 11 33.6473 11H32.385ZM33.0588 10.3757H33.6473C33.7023 10.3757 33.7719 10.3739 33.8563 10.3702C33.9424 10.3666 34.0185 10.3583 34.0845 10.3455C34.2715 10.3107 34.4237 10.2272 34.541 10.0952C34.6583 9.96325 34.7445 9.80283 34.7995 9.614C34.8563 9.42517 34.8848 9.22717 34.8848 9.02C34.8848 8.8055 34.8563 8.60383 34.7995 8.415C34.7427 8.22617 34.6547 8.06758 34.5355 7.93925C34.4182 7.81092 34.2678 7.72933 34.0845 7.6945C34.0185 7.67983 33.9424 7.67158 33.8563 7.66975C33.7719 7.66608 33.7023 7.66425 33.6473 7.66425H33.0588V10.3757ZM38.4108 11.0825C38.0148 11.0825 37.6757 10.9963 37.3933 10.824C37.111 10.6498 36.8937 10.4078 36.7416 10.098C36.5912 9.78817 36.5161 9.42883 36.5161 9.02C36.5161 8.61117 36.5912 8.25183 36.7416 7.942C36.8937 7.63217 37.111 7.39108 37.3933 7.21875C37.6757 7.04458 38.0148 6.9575 38.4108 6.9575C38.8068 6.9575 39.146 7.04458 39.4283 7.21875C39.7125 7.39108 39.9297 7.63217 40.0801 7.942C40.2322 8.25183 40.3083 8.61117 40.3083 9.02C40.3083 9.42883 40.2322 9.78817 40.0801 10.098C39.9297 10.4078 39.7125 10.6498 39.4283 10.824C39.146 10.9963 38.8068 11.0825 38.4108 11.0825ZM38.4108 10.4582C38.6767 10.4601 38.8976 10.4014 39.0736 10.2822C39.2514 10.1631 39.3843 9.99533 39.4723 9.779C39.5622 9.56267 39.6071 9.30967 39.6071 9.02C39.6071 8.73033 39.5622 8.47917 39.4723 8.2665C39.3843 8.052 39.2514 7.88517 39.0736 7.766C38.8976 7.64683 38.6767 7.58542 38.4108 7.58175C38.145 7.57992 37.9241 7.63858 37.7481 7.75775C37.5721 7.87692 37.4392 8.04467 37.3493 8.261C37.2613 8.47733 37.2173 8.73033 37.2173 9.02C37.2173 9.30967 37.2613 9.56175 37.3493 9.77625C37.4373 9.98892 37.5693 10.1548 37.7453 10.274C37.9232 10.3932 38.145 10.4546 38.4108 10.4582ZM42.0252 11L40.8674 7.04H41.5632L42.3524 9.9L43.1389 7.0455L43.8347 7.04L44.6239 9.9L45.4104 7.04H46.1062L44.9512 11H44.2967L43.4854 8.184L42.6797 11H42.0252ZM47.0549 11V7.04H47.7259L49.5629 9.83125V7.04H50.2339V11H49.5629L47.7259 8.20875V11H47.0549ZM51.5577 11V7.04H52.2204V10.3785H53.9694V11H51.5577ZM56.5026 11.0825C56.1066 11.0825 55.7675 10.9963 55.4851 10.824C55.2028 10.6498 54.9855 10.4078 54.8334 10.098C54.683 9.78817 54.6079 9.42883 54.6079 9.02C54.6079 8.61117 54.683 8.25183 54.8334 7.942C54.9855 7.63217 55.2028 7.39108 55.4851 7.21875C55.7675 7.04458 56.1066 6.9575 56.5026 6.9575C56.8986 6.9575 57.2378 7.04458 57.5201 7.21875C57.8043 7.39108 58.0215 7.63217 58.1719 7.942C58.324 8.25183 58.4001 8.61117 58.4001 9.02C58.4001 9.42883 58.324 9.78817 58.1719 10.098C58.0215 10.4078 57.8043 10.6498 57.5201 10.824C57.2378 10.9963 56.8986 11.0825 56.5026 11.0825ZM56.5026 10.4582C56.7685 10.4601 56.9894 10.4014 57.1654 10.2822C57.3432 10.1631 57.4761 9.99533 57.5641 9.779C57.654 9.56267 57.6989 9.30967 57.6989 9.02C57.6989 8.73033 57.654 8.47917 57.5641 8.2665C57.4761 8.052 57.3432 7.88517 57.1654 7.766C56.9894 7.64683 56.7685 7.58542 56.5026 7.58175C56.2368 7.57992 56.0159 7.63858 55.8399 7.75775C55.6639 7.87692 55.531 8.04467 55.4411 8.261C55.3531 8.47733 55.3091 8.73033 55.3091 9.02C55.3091 9.30967 55.3531 9.56175 55.4411 9.77625C55.5291 9.98892 55.6611 10.1548 55.8371 10.274C56.015 10.3932 56.2368 10.4546 56.5026 10.4582ZM59.0651 11L60.3136 7.04H61.2843L62.5328 11H61.8508L60.7178 7.447H60.8663L59.7471 11H59.0651ZM59.7608 10.142V9.52325H61.8398V10.142H59.7608ZM63.53 11V7.04H64.7923C64.8253 7.04 64.8904 7.04092 64.9875 7.04275C65.0865 7.04458 65.1819 7.051 65.2735 7.062C65.587 7.10233 65.8519 7.21417 66.0683 7.3975C66.2864 7.579 66.4514 7.81092 66.5633 8.09325C66.6751 8.37558 66.731 8.6845 66.731 9.02C66.731 9.3555 66.6751 9.66442 66.5633 9.94675C66.4514 10.2291 66.2864 10.4619 66.0683 10.6452C65.8519 10.8267 65.587 10.9377 65.2735 10.978C65.1837 10.989 65.0893 10.9954 64.9903 10.9972C64.8913 10.9991 64.8253 11 64.7923 11H63.53ZM64.2038 10.3757H64.7923C64.8473 10.3757 64.9169 10.3739 65.0013 10.3702C65.0874 10.3666 65.1635 10.3583 65.2295 10.3455C65.4165 10.3107 65.5687 10.2272 65.686 10.0952C65.8034 9.96325 65.8895 9.80283 65.9445 9.614C66.0014 9.42517 66.0298 9.22717 66.0298 9.02C66.0298 8.8055 66.0014 8.60383 65.9445 8.415C65.8877 8.22617 65.7997 8.06758 65.6805 7.93925C65.5632 7.81092 65.4129 7.72933 65.2295 7.6945C65.1635 7.67983 65.0874 7.67158 65.0013 7.66975C64.9169 7.66608 64.8473 7.66425 64.7923 7.66425H64.2038V10.3757ZM71.1569 11.0825C70.7609 11.0825 70.4218 10.9963 70.1394 10.824C69.8571 10.6498 69.6398 10.4078 69.4877 10.098C69.3373 9.78817 69.2622 9.42883 69.2622 9.02C69.2622 8.61117 69.3373 8.25183 69.4877 7.942C69.6398 7.63217 69.8571 7.39108 70.1394 7.21875C70.4218 7.04458 70.7609 6.9575 71.1569 6.9575C71.5529 6.9575 71.8921 7.04458 72.1744 7.21875C72.4586 7.39108 72.6758 7.63217 72.8262 7.942C72.9783 8.25183 73.0544 8.61117 73.0544 9.02C73.0544 9.42883 72.9783 9.78817 72.8262 10.098C72.6758 10.4078 72.4586 10.6498 72.1744 10.824C71.8921 10.9963 71.5529 11.0825 71.1569 11.0825ZM71.1569 10.4582C71.4228 10.4601 71.6437 10.4014 71.8197 10.2822C71.9975 10.1631 72.1304 9.99533 72.2184 9.779C72.3083 9.56267 72.3532 9.30967 72.3532 9.02C72.3532 8.73033 72.3083 8.47917 72.2184 8.2665C72.1304 8.052 71.9975 7.88517 71.8197 7.766C71.6437 7.64683 71.4228 7.58542 71.1569 7.58175C70.8911 7.57992 70.6702 7.63858 70.4942 7.75775C70.3182 7.87692 70.1853 8.04467 70.0954 8.261C70.0074 8.47733 69.9634 8.73033 69.9634 9.02C69.9634 9.30967 70.0074 9.56175 70.0954 9.77625C70.1834 9.98892 70.3154 10.1548 70.4914 10.274C70.6693 10.3932 70.8911 10.4546 71.1569 10.4582ZM74.1018 11V7.04H74.7728L76.6098 9.83125V7.04H77.2808V11H76.6098L74.7728 8.20875V11H74.1018ZM81.1021 11V7.6615H79.8206V7.04H83.0464V7.6615H81.7649V11H81.1021ZM83.9861 11V7.04H84.6488V8.7065H86.5243V7.04H87.1843V11H86.5243V9.328H84.6488V11H83.9861ZM88.4553 11V7.04H91.0128V7.6615H89.1181V8.63775H90.6828V9.25925H89.1181V10.3785H91.0128V11H88.4553Z" fill="#061257"/>
<path d="M39.7481 23.3063H38.1818L37.3238 20.6126H34.3422L33.5249 23.3063H32L34.9547 14.1358H36.7796L39.7481 23.3063ZM47.3465 19.9187C47.3465 21.0433 47.0423 21.9322 46.434 22.5848C45.8891 23.1657 45.2132 23.4558 44.4049 23.4558C43.5338 23.4558 42.9076 23.143 42.5262 22.5166H42.4986V26H41.0282V18.8706C41.0282 18.1635 41.0095 17.4379 40.9737 16.6937H42.2668L42.3489 17.7418H42.3765C42.8662 16.9521 43.6111 16.5579 44.6091 16.5579C45.3905 16.5579 46.0416 16.866 46.5637 17.4827C47.0858 18.1001 47.3465 18.9119 47.3465 19.9187ZM54.9587 19.9187C54.9587 21.0433 54.6545 21.9322 54.0455 22.5848C53.5013 23.1657 52.8248 23.4558 52.0171 23.4558C51.1453 23.4558 50.5191 23.143 50.1384 22.5166H50.1108V26H48.6404V18.8706C48.6404 18.1635 48.6217 17.4379 48.5859 16.6937H49.8797L49.9611 17.7418H49.9887C50.4784 16.9521 51.2219 16.5579 52.2213 16.5579C53.0013 16.5579 53.6538 16.866 54.1759 17.4827C54.6973 18.1001 54.9587 18.9119 54.9587 19.9187ZM63.4696 20.7353C63.4696 21.5146 63.1985 22.1493 62.6543 22.6393C62.0564 23.1754 61.2239 23.4421 60.1542 23.4421C59.1672 23.4421 58.3748 23.2519 57.7754 22.8708L58.1161 21.6463C58.7617 22.0363 59.47 22.2313 60.2418 22.2313C60.7956 22.2313 61.2267 22.1066 61.5363 21.8564C61.8453 21.607 61.9984 21.2728 61.9984 20.8545C61.9984 20.4824 61.8722 20.1688 61.617 19.9146C61.3639 19.6603 60.9411 19.4239 60.3514 19.2055C58.7444 18.6066 57.9409 17.7294 57.9409 16.5752C57.9409 15.822 58.223 15.2039 58.7858 14.7222C59.3472 14.2405 60.0962 14 61.0329 14C61.8681 14 62.5619 14.1447 63.1151 14.4348L62.7474 15.6325C62.2302 15.3513 61.6453 15.2107 60.9908 15.2107C60.4735 15.2107 60.0693 15.3375 59.7797 15.5918C59.5348 15.8185 59.4121 16.0949 59.4121 16.4222C59.4121 16.7847 59.5521 17.0844 59.8342 17.3194C60.079 17.5378 60.5239 17.7735 61.1687 18.0278C61.9584 18.3455 62.5385 18.7169 62.9116 19.1428C63.284 19.5693 63.4696 20.1006 63.4696 20.7353ZM68.3312 17.7963H66.7104V21.0068C66.7104 21.8234 66.996 22.2313 67.5684 22.2313C67.8312 22.2313 68.0499 22.2086 68.2223 22.1638L68.2623 23.2794C67.9726 23.3876 67.5919 23.4421 67.1188 23.4421C66.538 23.4421 66.0842 23.265 65.7566 22.9121C65.4311 22.5579 65.2662 21.9639 65.2662 21.1294V17.7963H64.3006V16.6937H65.2662V15.4829L66.7104 15.0474V16.6937H68.3312V17.7963ZM75.6441 19.9456C75.6441 20.962 75.3538 21.7965 74.773 22.4491C74.164 23.1202 73.3557 23.4558 72.348 23.4558C71.3769 23.4558 70.6038 23.134 70.0272 22.4897C69.4506 21.8461 69.1623 21.0337 69.1623 20.0544C69.1623 19.0297 69.4589 18.1904 70.0541 17.5378C70.6479 16.8846 71.4494 16.5579 72.457 16.5579C73.4288 16.5579 74.2095 16.8798 74.7999 17.5241C75.3627 18.1498 75.6441 18.9567 75.6441 19.9456ZM80.4237 17.9858C80.2782 17.9589 80.1237 17.9458 79.9603 17.9458C79.443 17.9458 79.0429 18.1408 78.7616 18.5308C78.516 18.8754 78.3939 19.3109 78.3939 19.8367V23.3063H76.9242L76.9373 18.7762C76.9373 18.0133 76.9187 17.3194 76.8821 16.6937H78.1636L78.2174 17.9589H78.2574C78.4126 17.5241 78.6581 17.174 78.9933 16.9121C79.3202 16.6758 79.6747 16.5579 80.0561 16.5579C80.192 16.5579 80.3148 16.5676 80.4237 16.5848V17.9858ZM87 19.6871C87 19.9504 86.9828 20.1723 86.9462 20.3535H82.5349C82.5521 21.0068 82.7652 21.5064 83.1742 21.8509C83.546 22.159 84.0274 22.3133 84.6171 22.3133C85.2702 22.3133 85.8661 22.2086 86.402 21.9998L86.6324 23.0203C86.0061 23.2925 85.2668 23.429 84.4136 23.429C83.3874 23.429 82.5818 23.1271 81.9956 22.5235C81.4114 21.9205 81.1176 21.1108 81.1176 20.0951C81.1176 19.0973 81.3893 18.2669 81.9355 17.6054C82.5066 16.8977 83.2784 16.5442 84.2495 16.5442C85.2033 16.5442 85.9254 16.8977 86.4158 17.6054C86.8048 18.1677 87 18.8623 87 19.6871ZM37.0651 19.4825L36.2892 17.0885C36.2072 16.8432 36.0534 16.2671 35.8258 15.3603H35.7989C35.7085 15.751 35.563 16.3264 35.363 17.0885L34.6009 19.4825H37.0651ZM45.8485 19.9724C45.8485 19.3288 45.7036 18.7982 45.4126 18.3806C45.0946 17.9458 44.6684 17.7273 44.1325 17.7273C43.7697 17.7273 43.44 17.8486 43.1455 18.0884C42.8503 18.3289 42.6572 18.6439 42.5669 19.0346C42.5213 19.2158 42.4986 19.3653 42.4986 19.4825V20.585C42.4986 21.066 42.6462 21.4719 42.9414 21.8027C43.2366 22.1341 43.62 22.2995 44.0918 22.2995C44.6456 22.2995 45.0774 22.0859 45.3857 21.66C45.694 21.2335 45.8485 20.6712 45.8485 19.9724ZM53.4607 19.9724C53.4607 19.3288 53.3151 18.7982 53.0248 18.3806C52.7068 17.9458 52.2806 17.7273 51.7447 17.7273C51.3812 17.7273 51.0522 17.8486 50.757 18.0884C50.4625 18.3289 50.2701 18.6439 50.1791 19.0346C50.1342 19.2158 50.1108 19.3653 50.1108 19.4825V20.585C50.1108 21.066 50.2584 21.4719 50.5522 21.8027C50.8474 22.1341 51.2316 22.2995 51.704 22.2995C52.2578 22.2995 52.6889 22.0859 52.9972 21.66C53.3062 21.2335 53.4607 20.6712 53.4607 19.9724ZM74.1185 19.9931C74.1185 19.3839 73.9875 18.8609 73.7233 18.424C73.415 17.8962 72.9743 17.6329 72.4032 17.6329C71.8121 17.6329 71.3632 17.8962 71.0549 18.424C70.7907 18.8609 70.6604 19.3922 70.6604 20.0207C70.6604 20.6305 70.7907 21.1536 71.0549 21.5898C71.3728 22.1169 71.8177 22.3808 72.3901 22.3808C72.9515 22.3808 73.3923 22.1128 73.7102 21.576C73.9819 21.1308 74.1185 20.6023 74.1185 19.9931ZM85.5978 19.3061C85.6075 18.8706 85.5116 18.495 85.3123 18.1766C85.0578 17.7687 84.6668 17.5647 84.1405 17.5647C83.6598 17.5647 83.2687 17.7639 82.9701 18.1635C82.7246 18.4812 82.579 18.8623 82.5349 19.3061H85.5978Z" fill="#061257"/>
<path d="M19.3075 6.83203C19.4157 7.80598 19.028 8.78895 18.4418 9.49236C17.8646 10.1958 16.9087 10.7459 15.9708 10.6737C15.8446 9.71781 16.3135 8.71681 16.8546 8.09456C17.4498 7.39115 18.4688 6.8681 19.3075 6.83203Z" fill="#061257"/>
<path d="M22.3307 12.5234C22.138 12.6443 20.5255 13.6561 20.5429 15.6877C20.5699 18.2128 22.7523 19.0514 22.7884 19.0514C22.7703 19.1146 22.4367 20.2508 21.6341 21.4232C20.9397 22.4422 20.2182 23.4523 19.082 23.4703C18.5332 23.4836 18.1668 23.3253 17.7858 23.1606C17.3903 22.9897 16.979 22.812 16.3314 22.812C15.6434 22.812 15.2105 22.9968 14.7935 23.1749C14.4344 23.3282 14.0872 23.4765 13.599 23.4973C12.4988 23.5424 11.6691 22.3971 10.9657 21.3871C9.53183 19.322 8.44065 15.5434 9.91059 12.9913C10.6411 11.7198 11.9397 10.9172 13.3555 10.8991C13.9654 10.8837 14.5579 11.1189 15.0765 11.3248C15.4705 11.4811 15.8218 11.6206 16.106 11.6206C16.3576 11.6206 16.6865 11.4905 17.0747 11.337C17.6881 11.0945 18.4499 10.7933 19.2894 10.854C19.8305 10.8991 21.3545 11.0614 22.3465 12.5134C22.3435 12.5154 22.3381 12.5187 22.3307 12.5234Z" fill="#061257"/>
</svg>