<svg width="110" height="32" viewBox="0 0 110 32" fill="none" xmlns="http://www.w3.org/2000/svg">
<rect width="110" height="32" rx="4" fill="#E6E7EE"/>
<path d="M8.09629 7.28062L16.8454 16.0122L8.13829 24.8204C7.8842 24.659 7.74799 24.3096 7.74568 23.8582C7.74131 22.9924 7.67199 9.25579 7.66677 8.22501C7.66434 7.73067 7.84426 7.42914 8.09629 7.28062ZM19.7305 13.0938L9.09154 7.29239C8.9779 7.23038 8.84886 7.19265 8.72029 7.17578L17.2073 15.646L19.7305 13.0938ZM20.2036 18.6363L17.5718 16.0097L20.201 13.3503L23.8216 15.3244C24.7136 15.8104 24.2573 16.4186 23.8216 16.6569L20.2036 18.6363ZM8.85954 24.8228C8.93371 24.7949 9.01117 24.7597 9.09154 24.7148L19.7327 18.8937L17.2099 16.3759L8.85954 24.8228Z" fill="#061257"/>
<path d="M78.6363 23.1277H79.957V14.3185H78.6363V23.1277ZM90.5314 17.4917L89.0176 21.3111H88.9723L87.4011 17.4917H85.9785L88.3346 22.8296L86.9913 25.7992H88.3693L92 17.4917H90.5314ZM83.042 22.1271C82.6089 22.1271 82.0059 21.9121 82.0059 21.3794C82.0059 20.6994 82.7575 20.4387 83.4058 20.4387C83.9869 20.4387 84.2594 20.5634 84.6125 20.7332C84.5099 21.5492 83.8043 22.1271 83.042 22.1271ZM83.2013 17.2993C82.2451 17.2993 81.255 17.7186 80.8452 18.6481L82.0172 19.135C82.2678 18.6481 82.7342 18.4888 83.2239 18.4888C83.9069 18.4888 84.6012 18.8968 84.6125 19.6226V19.7128C84.3733 19.5768 83.8616 19.3732 83.2353 19.3732C81.9719 19.3732 80.6852 20.0645 80.6852 21.3562C80.6852 22.5351 81.7214 23.2947 82.8821 23.2947C83.7703 23.2947 84.2594 22.898 84.5672 22.4329H84.6125V23.1129H85.8872V19.7361C85.8872 18.1717 84.7152 17.2993 83.2013 17.2993ZM75.0395 18.5642H73.1612V15.5447H75.0395C76.0268 15.5447 76.5874 16.3586 76.5874 17.0541C76.5874 17.7369 76.0268 18.5642 75.0395 18.5642ZM75.0056 14.3185H71.8412V23.1277H73.1612V19.7904H75.0056C76.4692 19.7904 77.908 18.7347 77.908 17.0541C77.908 15.3734 76.4692 14.3185 75.0056 14.3185ZM57.75 22.1285C56.8377 22.1285 56.074 21.3681 56.074 20.3238C56.074 19.2682 56.8377 18.4959 57.75 18.4959C58.6509 18.4959 59.3573 19.2682 59.3573 20.3238C59.3573 21.3681 58.6509 22.1285 57.75 22.1285ZM59.266 17.985H59.2207C58.9241 17.6333 58.3544 17.3155 57.636 17.3155C56.1307 17.3155 54.7512 18.6319 54.7512 20.3238C54.7512 22.0038 56.1307 23.3095 57.636 23.3095C58.3544 23.3095 58.9241 22.9917 59.2207 22.6281H59.266V23.0594C59.266 24.2066 58.6509 24.8197 57.6587 24.8197C56.849 24.8197 56.3472 24.2404 56.142 23.7521L54.9905 24.2291C55.321 25.024 56.1993 26 57.6587 26C59.2094 26 60.5208 25.0917 60.5208 22.8783V17.4966H59.266V17.985ZM61.4331 23.1277H62.7559V14.3178H61.4331V23.1277ZM64.705 20.2216C64.671 19.0638 65.606 18.4733 66.2783 18.4733C66.8035 18.4733 67.2479 18.734 67.3959 19.1089L64.705 20.2216ZM68.8099 19.2224C68.5594 18.5529 67.795 17.3155 66.233 17.3155C64.6824 17.3155 63.3943 18.5297 63.3943 20.3125C63.3943 21.9925 64.671 23.3095 66.381 23.3095C67.7611 23.3095 68.5594 22.4696 68.8899 21.9812L67.8637 21.2998C67.5218 21.7994 67.054 22.1285 66.381 22.1285C65.7086 22.1285 65.2295 21.822 64.9216 21.2209L68.9465 19.5635L68.8099 19.2224ZM36.7433 18.2351V19.5064H39.7987C39.7074 20.2216 39.4682 20.7438 39.1037 21.1074C38.6585 21.5499 37.9628 22.0376 36.7433 22.0376C34.8621 22.0376 33.3907 20.5282 33.3907 18.6551C33.3907 16.7814 34.8621 15.2719 36.7433 15.2719C37.7582 15.2719 38.4992 15.6694 39.0463 16.1803L39.9473 15.2832C39.1829 14.5567 38.1687 14 36.7433 14C34.1664 14 32 16.0894 32 18.6551C32 21.2209 34.1664 23.3095 36.7433 23.3095C38.134 23.3095 39.1829 22.8557 40.0039 22.0038C40.8476 21.1638 41.1101 19.9834 41.1101 19.0293C41.1101 18.734 41.0875 18.462 41.0415 18.2351H36.7433ZM44.5845 22.1285C43.6722 22.1285 42.8852 21.3794 42.8852 20.3125C42.8852 19.2337 43.6722 18.4959 44.5845 18.4959C45.496 18.4959 46.2831 19.2337 46.2831 20.3125C46.2831 21.3794 45.496 22.1285 44.5845 22.1285ZM44.5845 17.3155C42.9191 17.3155 41.5624 18.5755 41.5624 20.3125C41.5624 22.0376 42.9191 23.3095 44.5845 23.3095C46.2491 23.3095 47.6058 22.0376 47.6058 20.3125C47.6058 18.5755 46.2491 17.3155 44.5845 17.3155ZM51.1757 22.1285C50.2634 22.1285 49.4764 21.3794 49.4764 20.3125C49.4764 19.2337 50.2634 18.4959 51.1757 18.4959C52.088 18.4959 52.8743 19.2337 52.8743 20.3125C52.8743 21.3794 52.088 22.1285 51.1757 22.1285ZM51.1757 17.3155C49.5111 17.3155 48.1543 18.5755 48.1543 20.3125C48.1543 22.0376 49.5111 23.3095 51.1757 23.3095C52.8403 23.3095 54.1971 22.0376 54.1971 20.3125C54.1971 18.5755 52.8403 17.3155 51.1757 17.3155Z" fill="#061257"/>
<path d="M32.11 11L33.3585 7.04H34.3293L35.5778 11H34.8958L33.7628 7.447H33.9113L32.792 11H32.11ZM32.8058 10.142V9.52325H34.8848V10.142H32.8058ZM36.5749 11V7.04H37.2459L39.0829 9.83125V7.04H39.7539V11H39.0829L37.2459 8.20875V11H36.5749ZM41.0227 11V7.04H42.2849C42.3179 7.04 42.383 7.04092 42.4802 7.04275C42.5792 7.04458 42.6745 7.051 42.7662 7.062C43.0797 7.10233 43.3446 7.21417 43.5609 7.3975C43.7791 7.579 43.9441 7.81092 44.0559 8.09325C44.1678 8.37558 44.2237 8.6845 44.2237 9.02C44.2237 9.3555 44.1678 9.66442 44.0559 9.94675C43.9441 10.2291 43.7791 10.4619 43.5609 10.6452C43.3446 10.8267 43.0797 10.9377 42.7662 10.978C42.6764 10.989 42.5819 10.9954 42.4829 10.9972C42.3839 10.9991 42.3179 11 42.2849 11H41.0227ZM41.6964 10.3757H42.2849C42.3399 10.3757 42.4096 10.3739 42.4939 10.3702C42.5801 10.3666 42.6562 10.3583 42.7222 10.3455C42.9092 10.3107 43.0614 10.2272 43.1787 10.0952C43.296 9.96325 43.3822 9.80283 43.4372 9.614C43.494 9.42517 43.5224 9.22717 43.5224 9.02C43.5224 8.8055 43.494 8.60383 43.4372 8.415C43.3804 8.22617 43.2924 8.06758 43.1732 7.93925C43.0559 7.81092 42.9055 7.72933 42.7222 7.6945C42.6562 7.67983 42.5801 7.67158 42.4939 7.66975C42.4096 7.66608 42.3399 7.66425 42.2849 7.66425H41.6964V10.3757ZM45.3738 11V7.04H47.01C47.0485 7.04 47.098 7.04183 47.1585 7.0455C47.219 7.04733 47.2749 7.05283 47.3263 7.062C47.5554 7.09683 47.7443 7.17292 47.8928 7.29025C48.0431 7.40758 48.154 7.55608 48.2255 7.73575C48.2989 7.91358 48.3355 8.11158 48.3355 8.32975C48.3355 8.65242 48.2539 8.93017 48.0908 9.163C47.9276 9.394 47.6774 9.537 47.34 9.592L47.0568 9.61675H46.0365V11H45.3738ZM47.648 11L46.867 9.3885L47.5408 9.24L48.3988 11H47.648ZM46.0365 8.998H46.9825C47.0192 8.998 47.0604 8.99617 47.1063 8.9925C47.1521 8.98883 47.1943 8.9815 47.2328 8.9705C47.3428 8.943 47.4289 8.89442 47.4913 8.82475C47.5554 8.75508 47.6004 8.67625 47.626 8.58825C47.6535 8.50025 47.6673 8.41408 47.6673 8.32975C47.6673 8.24542 47.6535 8.15925 47.626 8.07125C47.6004 7.98142 47.5554 7.90167 47.4913 7.832C47.4289 7.76233 47.3428 7.71375 47.2328 7.68625C47.1943 7.67525 47.1521 7.66883 47.1063 7.667C47.0604 7.66333 47.0192 7.6615 46.9825 7.6615H46.0365V8.998ZM51.1794 11.0825C50.7834 11.0825 50.4442 10.9963 50.1619 10.824C49.8795 10.6498 49.6623 10.4078 49.5101 10.098C49.3598 9.78817 49.2846 9.42883 49.2846 9.02C49.2846 8.61117 49.3598 8.25183 49.5101 7.942C49.6623 7.63217 49.8795 7.39108 50.1619 7.21875C50.4442 7.04458 50.7834 6.9575 51.1794 6.9575C51.5754 6.9575 51.9145 7.04458 52.1969 7.21875C52.481 7.39108 52.6983 7.63217 52.8486 7.942C53.0008 8.25183 53.0769 8.61117 53.0769 9.02C53.0769 9.42883 53.0008 9.78817 52.8486 10.098C52.6983 10.4078 52.481 10.6498 52.1969 10.824C51.9145 10.9963 51.5754 11.0825 51.1794 11.0825ZM51.1794 10.4582C51.4452 10.4601 51.6661 10.4014 51.8421 10.2822C52.02 10.1631 52.1529 9.99533 52.2409 9.779C52.3307 9.56267 52.3756 9.30967 52.3756 9.02C52.3756 8.73033 52.3307 8.47917 52.2409 8.2665C52.1529 8.052 52.02 7.88517 51.8421 7.766C51.6661 7.64683 51.4452 7.58542 51.1794 7.58175C50.9135 7.57992 50.6926 7.63858 50.5166 7.75775C50.3406 7.87692 50.2077 8.04467 50.1179 8.261C50.0299 8.47733 49.9859 8.73033 49.9859 9.02C49.9859 9.30967 50.0299 9.56175 50.1179 9.77625C50.2059 9.98892 50.3379 10.1548 50.5139 10.274C50.6917 10.3932 50.9135 10.4546 51.1794 10.4582ZM54.1793 11V7.04H54.842V11H54.1793ZM56.1658 11V7.04H57.428C57.461 7.04 57.5261 7.04092 57.6233 7.04275C57.7223 7.04458 57.8176 7.051 57.9093 7.062C58.2228 7.10233 58.4877 7.21417 58.704 7.3975C58.9222 7.579 59.0872 7.81092 59.199 8.09325C59.3108 8.37558 59.3668 8.6845 59.3668 9.02C59.3668 9.3555 59.3108 9.66442 59.199 9.94675C59.0872 10.2291 58.9222 10.4619 58.704 10.6452C58.4877 10.8267 58.2228 10.9377 57.9093 10.978C57.8194 10.989 57.725 10.9954 57.626 10.9972C57.527 10.9991 57.461 11 57.428 11H56.1658ZM56.8395 10.3757H57.428C57.483 10.3757 57.5527 10.3739 57.637 10.3702C57.7232 10.3666 57.7993 10.3583 57.8653 10.3455C58.0523 10.3107 58.2044 10.2272 58.3218 10.0952C58.4391 9.96325 58.5253 9.80283 58.5803 9.614C58.6371 9.42517 58.6655 9.22717 58.6655 9.02C58.6655 8.8055 58.6371 8.60383 58.5803 8.415C58.5234 8.22617 58.4354 8.06758 58.3163 7.93925C58.1989 7.81092 58.0486 7.72933 57.8653 7.6945C57.7993 7.67983 57.7232 7.67158 57.637 7.66975C57.5527 7.66608 57.483 7.66425 57.428 7.66425H56.8395V10.3757ZM61.8429 11L63.0914 7.04H64.0622L65.3107 11H64.6287L63.4957 7.447H63.6442L62.5249 11H61.8429ZM62.5387 10.142V9.52325H64.6177V10.142H62.5387ZM66.3079 11V7.04H67.9441C67.9826 7.04 68.0321 7.04183 68.0926 7.0455C68.1531 7.04733 68.209 7.05283 68.2604 7.062C68.4895 7.09683 68.6784 7.17292 68.8269 7.29025C68.9772 7.40758 69.0881 7.55608 69.1596 7.73575C69.2329 7.91358 69.2696 8.11158 69.2696 8.32975C69.2696 8.54608 69.2329 8.74408 69.1596 8.92375C69.0863 9.10158 68.9744 9.24917 68.8241 9.3665C68.6756 9.48383 68.4877 9.55992 68.2604 9.59475C68.209 9.60208 68.1522 9.60758 68.0899 9.61125C68.0294 9.61492 67.9808 9.61675 67.9441 9.61675H66.9706V11H66.3079ZM66.9706 8.998H67.9166C67.9533 8.998 67.9945 8.99617 68.0404 8.9925C68.0862 8.98883 68.1284 8.9815 68.1669 8.9705C68.2769 8.943 68.363 8.89442 68.4254 8.82475C68.4895 8.75508 68.5344 8.67625 68.5601 8.58825C68.5876 8.50025 68.6014 8.41408 68.6014 8.32975C68.6014 8.24542 68.5876 8.15925 68.5601 8.07125C68.5344 7.98142 68.4895 7.90167 68.4254 7.832C68.363 7.76233 68.2769 7.71375 68.1669 7.68625C68.1284 7.67525 68.0862 7.66883 68.0404 7.667C67.9945 7.66333 67.9533 7.6615 67.9166 7.6615H66.9706V8.998ZM70.3205 11V7.04H71.9568C71.9953 7.04 72.0448 7.04183 72.1053 7.0455C72.1658 7.04733 72.2217 7.05283 72.273 7.062C72.5022 7.09683 72.691 7.17292 72.8395 7.29025C72.9899 7.40758 73.1008 7.55608 73.1723 7.73575C73.2456 7.91358 73.2823 8.11158 73.2823 8.32975C73.2823 8.54608 73.2456 8.74408 73.1723 8.92375C73.099 9.10158 72.9871 9.24917 72.8368 9.3665C72.6883 9.48383 72.5004 9.55992 72.273 9.59475C72.2217 9.60208 72.1649 9.60758 72.1025 9.61125C72.042 9.61492 71.9935 9.61675 71.9568 9.61675H70.9833V11H70.3205ZM70.9833 8.998H71.9293C71.966 8.998 72.0072 8.99617 72.053 8.9925C72.0989 8.98883 72.141 8.9815 72.1795 8.9705C72.2895 8.943 72.3757 8.89442 72.438 8.82475C72.5022 8.75508 72.5471 8.67625 72.5728 8.58825C72.6003 8.50025 72.614 8.41408 72.614 8.32975C72.614 8.24542 72.6003 8.15925 72.5728 8.07125C72.5471 7.98142 72.5022 7.90167 72.438 7.832C72.3757 7.76233 72.2895 7.71375 72.1795 7.68625C72.141 7.67525 72.0989 7.66883 72.053 7.667C72.0072 7.66333 71.966 7.6615 71.9293 7.6615H70.9833V8.998ZM77.6091 11.0825C77.2131 11.0825 76.8739 10.9963 76.5916 10.824C76.3092 10.6498 76.092 10.4078 75.9398 10.098C75.7895 9.78817 75.7143 9.42883 75.7143 9.02C75.7143 8.61117 75.7895 8.25183 75.9398 7.942C76.092 7.63217 76.3092 7.39108 76.5916 7.21875C76.8739 7.04458 77.2131 6.9575 77.6091 6.9575C78.0051 6.9575 78.3442 7.04458 78.6266 7.21875C78.9107 7.39108 79.128 7.63217 79.2783 7.942C79.4305 8.25183 79.5066 8.61117 79.5066 9.02C79.5066 9.42883 79.4305 9.78817 79.2783 10.098C79.128 10.4078 78.9107 10.6498 78.6266 10.824C78.3442 10.9963 78.0051 11.0825 77.6091 11.0825ZM77.6091 10.4582C77.8749 10.4601 78.0958 10.4014 78.2718 10.2822C78.4496 10.1631 78.5826 9.99533 78.6706 9.779C78.7604 9.56267 78.8053 9.30967 78.8053 9.02C78.8053 8.73033 78.7604 8.47917 78.6706 8.2665C78.5826 8.052 78.4496 7.88517 78.2718 7.766C78.0958 7.64683 77.8749 7.58542 77.6091 7.58175C77.3432 7.57992 77.1223 7.63858 76.9463 7.75775C76.7703 7.87692 76.6374 8.04467 76.5476 8.261C76.4596 8.47733 76.4156 8.73033 76.4156 9.02C76.4156 9.30967 76.4596 9.56175 76.5476 9.77625C76.6356 9.98892 76.7676 10.1548 76.9436 10.274C77.1214 10.3932 77.3432 10.4546 77.6091 10.4582ZM80.5539 11V7.04H81.2249L83.0619 9.83125V7.04H83.7329V11H83.0619L81.2249 8.20875V11H80.5539Z" fill="#061257"/>
</svg>